<?xml version="1.0" encoding="UTF-8" standalone="no"?>
<!-- Created with Inkscape (http://www.inkscape.org/) -->

<svg
   width="402.64969mm"
   height="81.28228mm"
   viewBox="0 0 402.64969 81.28228"
   version="1.1"
   id="svg1"
   xmlns="http://www.w3.org/2000/svg"
   xmlns:svg="http://www.w3.org/2000/svg">
  <defs
     id="defs1" />
  <path
     id="path4"
     style="fill:#028657;fill-opacity:1;stroke:none;stroke-width:1.01;stroke-dasharray:none;stroke-dashoffset:0;stroke-opacity:1"
     d="M 37.092367,-7.4140155e-6 C -2.101523,-7.4140155e-6 0.02020705,9.9332386 0.02020705,9.9332386 c 0,0 23.18809995,57.9529724 28.80599995,65.4435124 5.61791,7.49054 35.04272,3.14371 41.60676,4.90255 6.56404,1.75882 5.88233,-5.61103 5.88233,-5.61103 0,0 2.47831,-1.4703 4.35736,-1.34824 0.99263,0.0645 -2.67739,7.48309 -1.35806,7.95094 0.79923,0.28341 4.69267,-4.85419 6.11436,-4.88653 2.34344,-0.0533 -1.15497,4.69945 -1.15497,4.69945 0,0 9.18755,-5.07875 9.18755,-20.17912 0,-15.10038 -11.24996,-19.48512 -11.24996,-19.48512 a 4.7690348,4.7690348 0 0 0 0.70177,-2.49081 4.7690348,4.7690348 0 0 0 -4.7687,-4.76921 4.7690348,4.7690348 0 0 0 -2.41691,0.65784 C 74.523207,24.810251 68.381917,-7.4140155e-6 37.092367,-7.4140155e-6 Z M 61.203037,26.777131 a 4.3965845,4.3965845 0 0 1 4.39664,4.39664 4.3965845,4.3965845 0 0 1 -4.39664,4.39662 4.3965845,4.3965845 0 0 1 -4.39662,-4.39662 4.3965845,4.3965845 0 0 1 4.39662,-4.39664 z" />
  <text
     xml:space="preserve"
     style="font-style:normal;font-variant:normal;font-weight:normal;font-stretch:normal;font-size:67.9297px;font-family:'Adwaita Mono';-inkscape-font-specification:'Adwaita Mono';writing-mode:lr-tb;direction:ltr;fill:#028657;fill-opacity:1;stroke:none;stroke-width:1.35057;stroke-dasharray:none;stroke-dashoffset:0;stroke-opacity:1"
     x="122.5753"
     y="56.146744"
     id="text29"><tspan
       id="tspan29"
       style="font-style:normal;font-variant:normal;font-weight:bold;font-stretch:normal;font-size:67.9297px;font-family:'JetBrainsMonoNL Nerd Font Propo';-inkscape-font-specification:'JetBrainsMonoNL Nerd Font Propo Bold';stroke-width:1.35057"
       x="122.5753"
       y="56.146744">pupload</tspan></text>
</svg>
