<?xml version="1.0" encoding="UTF-8" standalone="no"?>
<!-- Created with Inkscape (http://www.inkscape.org/) -->

<svg
   width="93.461571mm"
   height="81.282318mm"
   viewBox="0 0 93.461571 81.282318"
   version="1.1"
   id="svg1"
   xmlns="http://www.w3.org/2000/svg"
   xmlns:svg="http://www.w3.org/2000/svg">
  <defs
     id="defs1" />
  <path
     id="path4"
     style="fill:#028657;fill-opacity:1;stroke:none;stroke-width:1.01;stroke-dasharray:none;stroke-dashoffset:0;stroke-opacity:1"
     d="M 37.092409,-1.2476698e-6 C -2.1014792,-1.2476698e-6 0.02025378,9.9332425 0.02025378,9.9332425 c 0,0 23.18808822,57.9530095 28.80599422,65.4435535 5.617908,7.490537 35.042721,3.143708 41.606761,4.902543 6.564033,1.75882 5.882328,-5.61103 5.882328,-5.61103 0,0 2.478312,-1.470298 4.357358,-1.348236 0.992634,0.06446 -2.677389,7.483085 -1.358056,7.950935 0.799229,0.283416 4.692666,-4.854189 6.114356,-4.886524 2.343443,-0.05332 -1.154966,4.699452 -1.154966,4.699452 0,0 9.187552,-5.078751 9.187552,-20.179129 0,-15.100379 -11.249962,-19.485115 -11.249962,-19.485115 a 4.7690348,4.7690348 0 0 0 0.701765,-2.490807 4.7690348,4.7690348 0 0 0 -4.768701,-4.769212 4.7690348,4.7690348 0 0 0 -2.416906,0.657837 C 74.523246,24.810292 68.381952,-1.2476698e-6 37.092409,-1.2476698e-6 Z M 61.203081,26.777173 a 4.3965845,4.3965845 0 0 1 4.396635,4.396635 4.3965845,4.3965845 0 0 1 -4.396635,4.396628 4.3965845,4.3965845 0 0 1 -4.396628,-4.396628 4.3965845,4.3965845 0 0 1 4.396628,-4.396635 z" />
</svg>
